<svg
        width="18"
        height="20"
        viewBox="0 0 20 22"
        fill="none"
        xmlns="http://www.w3.org/2000/svg"
>
    <path
            d="M19 11L16 11M11.5 11L8.5 11M4 11L1 11M14.0094 2.28777L10.6341 6.67567C10.4183 6.95616 10.3105 7.09641 10.179 7.14681C10.0637 7.19098 9.93626 7.19098 9.82104 7.14681C9.68955 7.09641 9.58167 6.95616 9.3659 6.67567L5.99059 2.28777C5.67243 1.87415 5.51334 1.66735 5.51547 1.49387C5.51732 1.34295 5.58725 1.20094 5.70574 1.10745C5.84195 0.999999 6.10286 0.999999 6.62469 0.999999L13.3753 1C13.8971 1 14.1581 1 14.2943 1.10745C14.4128 1.20094 14.4827 1.34295 14.4845 1.49387C14.4867 1.66735 14.3276 1.87415 14.0094 2.28777ZM14.0094 19.7122L10.6341 15.3243C10.4183 15.0438 10.3105 14.9036 10.179 14.8532C10.0637 14.809 9.93626 14.809 9.82104 14.8532C9.68955 14.9036 9.58167 15.0438 9.3659 15.3243L5.99059 19.7122C5.67243 20.1258 5.51334 20.3327 5.51547 20.5061C5.51732 20.657 5.58724 20.7991 5.70574 20.8925C5.84195 21 6.10286 21 6.62469 21L13.3753 21C13.8971 21 14.1581 21 14.2943 20.8925C14.4128 20.7991 14.4827 20.6571 14.4845 20.5061C14.4867 20.3327 14.3276 20.1258 14.0094 19.7122Z"
            stroke="#444444"
            stroke-width="2"
            stroke-linecap="round"
            stroke-linejoin="round"
    />
</svg>