<svg
        width="22"
        height="22"
        viewBox="0 0 22 22"
        fill="none"
        xmlns="http://www.w3.org/2000/svg"
>
    <path
            d="M11.5858 13L8.58579 10M13.5961 2.5V1M17.5355 4.06066L18.5961 3M17.5355 12L18.5961 13.0607M9.59614 4.06066L8.53548 3M19.0961 8H20.5961M4.71716 19.8686L13.9544 10.6314C14.3504 10.2354 14.5484 10.0373 14.6226 9.80902C14.6879 9.60817 14.6879 9.39183 14.6226 9.19098C14.5484 8.96265 14.3504 8.76465 13.9544 8.36863L13.2172 7.63137C12.8211 7.23535 12.6231 7.03735 12.3948 6.96316C12.194 6.8979 11.9776 6.8979 11.7768 6.96316C11.5484 7.03735 11.3504 7.23535 10.9544 7.63137L1.71716 16.8686C1.32114 17.2646 1.12313 17.4627 1.04894 17.691C0.983686 17.8918 0.983686 18.1082 1.04894 18.309C1.12313 18.5373 1.32114 18.7354 1.71716 19.1314L2.45442 19.8686C2.85043 20.2646 3.04844 20.4627 3.27677 20.5368C3.47761 20.6021 3.69396 20.6021 3.8948 20.5368C4.12313 20.4627 4.32114 20.2646 4.71716 19.8686Z"
            stroke="#0CABA8"
            stroke-width="2"
            stroke-linecap="round"
            stroke-linejoin="round"
    />
</svg>